<svg xmlns="http://www.w3.org/2000/svg" viewBox="0 0 62.87 40.34"><path d="M62.81 28.01 45.54.2a.423.423 0 0 0-.41-.19H17.71c-.15 0-.29.06-.38.2L.06 28.01a.38.38 0 0 0-.05.31c.02.11.09.2.18.26l6.51 4.04c.19.12.45.06.57-.13L17.3 16.33v23.59c0 .23.19.41.41.41h27.35c.23 0 .41-.19.41-.41V16.23l10.09 16.26c.12.19.38.25.57.13l6.51-4.04c.09-.06.16-.15.19-.26.03-.11 0-.22-.05-.31ZM36.85 8.87l1.01 5.92-3.67 5.91V10.18l.9-1.74.04-.08 3.74-7.27 4.08 3.77-5.91 3.59c-.15.09-.22.26-.19.42Zm-3.48 1.21v29.43h-3.85V10.08c0-.07-.02-.13-.05-.19l-.2-.38c.67.32 1.4.48 2.17.48s1.5-.17 2.17-.48l-.2.38c-.03.06-.05.12-.05.19Zm-7.52-1.64-5.91-3.59 4.08-3.77 3.74 7.27.04.08.9 1.74v10.52l-3.67-5.91 1.01-5.92a.405.405 0 0 0-.19-.42Zm8.56-.48a4.252 4.252 0 0 1-5.92 0L24.82.82h4.49v1.79c0 .23.19.42.41.42h3.46c.23 0 .41-.19.41-.42V.83h4.49l-3.67 7.14ZM32.76.82v1.37h-2.63V.83h2.63ZM18.15 14.87V9.38c0-.23-.19-.41-.41-.41s-.41.19-.41.41v5.37L6.8 31.7.99 28.09 17.91.83h5.15l-4.1 3.79c-.1.09-.14.22-.13.35.01.13.09.25.2.31l6.14 3.73-.99 5.8c-.02.1 0 .2.06.29l4.46 7.18v17.23H18.16V14.88Zm37.93 16.82L45.5 14.65V9.38c0-.23-.19-.41-.41-.41s-.41.19-.41.41v30.11H34.2V22.26l4.46-7.18c.05-.09.07-.19.06-.29l-.99-5.8 6.14-3.73a.44.44 0 0 0 .2-.31.452.452 0 0 0-.13-.35L39.84.81h5.05s.02.01.03.02c.04.02.08.04.12.04l16.89 27.21-5.81 3.61Z" style="fill:#665822"/><path d="m26.34 29.15-1.53-1.53a.423.423 0 0 0-.59 0l-5 5c-.16.16-.16.42 0 .59l1.53 1.53c.08.08.18.12.29.12s.22-.04.29-.12l5-5c.16-.16.16-.42 0-.59Zm-5.29 4.71-.95-.95 4.41-4.41.95.95-4.41 4.41ZM38.65 27.62a.423.423 0 0 0-.59 0l-1.53 1.53c-.16.16-.16.42 0 .59l5 5c.08.08.18.12.29.12s.22-.04.29-.12l1.53-1.53c.16-.16.16-.42 0-.59l-5-5Zm3.17 6.24-4.41-4.41.95-.95 4.41 4.41-.95.95Z" style="fill:#665822"/></svg>