<svg xmlns="http://www.w3.org/2000/svg" viewBox="0 0 58.84 47.33"><path d="m58.81 39.39-.79-2.18c0-.06 0-.12-.03-.18a.391.391 0 0 0-.1-.16L44.71.34s-.02-.05-.04-.08a.473.473 0 0 0-.42-.26H14.6c-.08 0-.15.01-.22.04a.47.47 0 0 0-.24.26L.03 39.36c-.09.24.04.51.28.6l8.94 3.23c.12.04.24.04.36-.02.11-.05.2-.15.24-.26l.85-2.35 3.46-9.59v15.9c0 .26.21.47.47.47h29.63c.26 0 .47-.21.47-.47V31.09l4.28 11.85c.04.12.13.21.24.26.11.05.24.06.36.02l8.94-3.23c.24-.09.37-.36.28-.6ZM27.85.93h3.14v1.52h-3.14V.93Zm-.93 0v1.99c0 .26.21.47.47.47h4.07c.26 0 .47-.21.47-.47V.93h6.73C38.42 4.87 35.14 8 31.14 8h-3.42c-4 0-7.28-3.13-7.52-7.07h6.73ZM9.12 42.15l-8.06-2.91.53-1.46 8.06 2.89-.53 1.47Zm5.96-13.78v-.03l1.42-16.22a.461.461 0 0 0-.42-.5.477.477 0 0 0-.51.42l-1.41 16.13-4.2 11.62L1.9 36.9 14.9.93h4.35c.24 4.46 3.94 8.01 8.46 8.01h5.47v1.64h-5.47a.47.47 0 0 0-.47.47V46.4H15.08V28.37Zm13.09-16.86h2.49v34.88h-2.49V11.51Zm16.51 16.75s-.01-.02-.02-.03l-1.41-16.18a.457.457 0 0 0-.51-.42c-.26.02-.45.25-.42.5l1.42 16.22s.02.1.04.14V46.4H31.59V11.51h2.05c.26 0 .47-.21.47-.47V8.39c3.07-1.15 5.3-4.04 5.49-7.46h4.34l13 35.98-8.06 2.89-4.17-11.55Zm5.03 13.92-.54-1.49 8.06-2.89.53 1.48-8.06 2.91Z" style="fill:#665822"/><path d="M24.23 33.64a.47.47 0 0 0-.66 0l-6.42 6.42a.47.47 0 0 0 .33.8c.12 0 .24-.05.33-.14l6.42-6.42a.47.47 0 0 0 0-.66ZM35.27 33.64a.47.47 0 0 0-.66 0 .47.47 0 0 0 0 .66l6.42 6.42c.09.09.21.14.33.14a.47.47 0 0 0 .33-.8l-6.42-6.42ZM32.08 10.43a.67.67 0 1 0 0-1.34.67.67 0 0 0 0 1.34Z" style="fill:#665822"/></svg>