<svg xmlns="http://www.w3.org/2000/svg" viewBox="0 0 98.53 40"><path d="M57.42 12.25v4.39c.39-.7.96-1.26 1.71-1.7.64-.37 1.43-.55 2.35-.55 1.68 0 3.05.71 4.12 2.14 1.07 1.43 1.6 3.28 1.6 5.55s-.53 4.12-1.6 5.55c-.53.7-1.26 1.2-2.17 1.51-.91.31-1.81.47-2.7.47-1.71 0-3.3-.46-4.76-1.37-1.46-.92-2.19-2.67-2.19-5.27V10.39h1.82c.5 0 .93.18 1.28.55.36.37.53.81.53 1.32Zm6.1 9.67c0-1.32-.27-2.34-.8-3.08-.53-.77-1.27-1.15-2.19-1.15-1 0-1.77.37-2.3 1.1-.53.77-.8 1.81-.8 3.13 0 1.54.25 2.66.75 3.35.53.77 1.28 1.15 2.25 1.15s1.76-.38 2.3-1.15c.53-.77.8-1.89.8-3.35ZM78.7 24.83h2.67c-.39 1.54-1.14 2.71-2.25 3.52-1.11.84-2.5 1.26-4.17 1.26-2.03 0-3.62-.68-4.76-2.03-1.14-1.32-1.71-3.2-1.71-5.66s.55-4.18 1.66-5.49c1.14-1.35 2.73-2.03 4.76-2.03 2.14 0 3.8.66 4.97 1.98 1.14 1.36 1.71 3.24 1.71 5.66v.6c0 .18-.02.31-.05.38h-9.25c.04 1.14.3 1.98.8 2.53.46.59 1.16.88 2.09.88.61 0 1.12-.13 1.55-.38.11-.04.2-.1.29-.19.09-.09.19-.19.29-.3.04-.11.17-.26.4-.44s.56-.27.99-.27Zm-6.42-4.29h5.46c-.07-.99-.32-1.72-.75-2.2-.46-.51-1.12-.77-1.98-.77-.78 0-1.43.26-1.93.77s-.77 1.25-.8 2.2ZM93.03 24.83h2.67c-.39 1.54-1.14 2.71-2.25 3.52-1.11.84-2.5 1.26-4.17 1.26-2.03 0-3.62-.68-4.76-2.03-1.14-1.32-1.71-3.2-1.71-5.66s.55-4.18 1.66-5.49c1.14-1.35 2.73-2.03 4.76-2.03 2.14 0 3.8.66 4.97 1.98 1.14 1.36 1.71 3.24 1.71 5.66v.6c0 .18-.02.31-.05.38h-9.25c.03 1.14.3 1.98.8 2.53.46.59 1.16.88 2.09.88.61 0 1.12-.13 1.55-.38.11-.04.2-.1.29-.19.09-.09.19-.19.29-.3.04-.11.17-.26.4-.44s.56-.27.99-.27Zm-6.42-4.29h5.46c-.07-.99-.32-1.72-.75-2.2-.46-.51-1.12-.77-1.98-.77-.78 0-1.43.26-1.93.77s-.77 1.25-.8 2.2Z" style="fill:#665822"/><path d="M14.39 26.88c.14.72.39 1.4.71 2.03h6.88v-2.04h-7.59ZM14.23 22.59v2.02l7.7-.01h.04v-2.01h-7.74zM14.23 18.4h7.75v1.92h-7.75zM14.39 11.84h7.59V5.56c-3.37-.02-6.75 2.08-7.59 6.28ZM16.82 31.18c1.48 1.35 3.32 2.02 5.16 2.01v-2.01h-5.16ZM14.23 16.13h7.75v-2.02h-7.75v2.02Z" style="fill:#faa61a"/><path d="M24.16 10.31a3.2 3.2 0 0 0-2.32-.99c-.53 0-.96-.44-.96-.99s.43-.99.96-.99c1.39 0 2.69.56 3.67 1.56.38.39.38 1.01 0 1.4-.38.38-.98.39-1.36 0Z" style="fill:#fff"/><path d="M36.54 11.85h-4.83c-.43-2.77-1.93-5.16-4.06-6.71l3.11-3.2c.43-.44.43-1.16 0-1.6-.43-.44-1.13-.44-1.56 0l-3.57 3.67c-2.44-1.01-5.18-1-7.67.12L14.27.33c-.43-.44-1.13-.44-1.56 0-.43.44-.43 1.16 0 1.6l3.28 3.37a10.236 10.236 0 0 0-3.84 6.54H7.32C3.28 11.84 0 15.22 0 19.37s3.29 7.52 7.32 7.52h4.83c.68 4.4 4.15 8.01 8.67 8.5v3.48c0 .63.49 1.14 1.1 1.14s1.1-.51 1.1-1.14v-3.49c4.11-.49 7.9-3.54 8.67-8.49h4.83c4.04 0 7.32-3.37 7.32-7.52 0-4.15-3.29-7.52-7.32-7.52ZM12.02 24.61h-4.7c-2.82 0-5.11-2.35-5.11-5.24 0-2.9 2.29-5.25 5.11-5.25h4.7v10.5Zm17.45-12.79c-1.67 0-13.33.01-15.08.01 1.68-8.38 13.39-8.38 15.08-.01ZM16.82 31.17h10.22c-2.93 2.68-7.29 2.68-10.22 0Zm11.94-2.27H15.09c-.32-.63-.56-1.31-.71-2.03h15.08c-.14.72-.39 1.4-.71 2.03Zm.87-4.3h-15.4v-2.02h15.4v2.02Zm0-4.29h-15.4v-1.92h15.4v1.92Zm0-4.19h-15.4V14.1l15.4-.01v2.03Zm6.91 8.49h-4.7V14.1h4.7c2.82 0 5.11 2.36 5.11 5.26s-2.29 5.25-5.11 5.25Z" style="fill:#665822"/></svg>