<svg xmlns="http://www.w3.org/2000/svg" viewBox="0 0 27.18 60.82"><path d="M26.72 56.22h-.37V37.56l-2.02-22.12V.47a.47.47 0 0 0-.47-.47h-2.75a.47.47 0 0 0-.47.47v14.5H6.55V.47A.47.47 0 0 0 6.08 0H3.33a.47.47 0 0 0-.47.47v14.96L.84 37.59v18.63H.47a.47.47 0 0 0-.47.47v3.68c0 .26.21.47.47.47h11.87c.26 0 .47-.21.47-.47v-3.68a.47.47 0 0 0-.47-.47h-.37L12 45.1c0-.81.72-1.46 1.6-1.46s1.6.66 1.6 1.46l.03 11.12h-.37a.47.47 0 0 0-.47.47v3.68c0 .26.21.47.47.47h11.87c.26 0 .47-.21.47-.47v-3.68a.47.47 0 0 0-.47-.47ZM3.8 7.48V.93h1.82v6.55H3.8Zm.31 2.75h-.3V8.41h1.82v1.82h-.31c-.15-.19-.37-.3-.6-.3s-.45.11-.6.29Zm1.2.95h.3v3.79H3.79v-3.79h.31c.15.2.37.3.6.3s.45-.11.6-.29Zm16.26-3.7V.93h1.82v6.55h-1.82Zm.31 2.75h-.3V8.41h1.82v1.82h-.31c-.15-.19-.37-.3-.6-.3s-.45.11-.6.29Zm1.2.95h.3v3.79h-1.82v-3.79h.31c.15.2.37.3.6.3s.45-.11.6-.29Zm-2.01 24.25h-1.58a.47.47 0 0 0-.47.47v1.25H8.18V35.9a.47.47 0 0 0-.47-.47H6.13a.47.47 0 0 0-.47.47v1.25H1.79L3.77 15.9H23.4l1.98 21.25h-3.86V35.9a.47.47 0 0 0-.47-.47ZM4.28 38.11a3.016 3.016 0 0 1-2.48 2.48h-.03v-2.51h2.51v.03Zm2.31.76v-2.51h.65v2.51h-.65Zm13.35 0v-2.51h.65v2.51h-.65Zm-8.88 6.21-.03 11.13H1.77V41.54h.02c1.8-.23 3.21-1.64 3.43-3.43v-.02h.43v1.25c0 .26.21.47.47.47H7.7c.26 0 .47-.21.47-.47v-1.25h10.84v1.25c0 .26.21.47.47.47h1.58c.26 0 .47-.21.47-.47v-1.25h.43v.02c.23 1.8 1.64 3.21 3.43 3.43h.02v14.68h-9.26l-.03-11.12c0-1.32-1.14-2.39-2.53-2.39s-2.53 1.07-2.53 2.39Zm11.84-7h2.51v2.51h-.03a3.028 3.028 0 0 1-2.48-2.48v-.03ZM11.87 57.14v2.74H.93v-2.74h10.94Zm14.38 0v2.74H15.31v-2.74h10.94Z" style="fill:#665822"/><path d="M22.5 30.56V19.55a.47.47 0 0 0-.47-.47H5.15a.47.47 0 0 0-.47.47v11.01c0 .26.21.47.47.47h16.88c.26 0 .47-.21.47-.47Zm-16.88-.47V20.02h8.9v10.07h-8.9Zm9.83-6.66v-3.41h6.11v3.41h-6.11Zm0 6.66v-5.73h6.11v5.73h-6.11Z" style="fill:#665822"/></svg>