<svg xmlns="http://www.w3.org/2000/svg" viewBox="0 0 29.32 33.5"><path d="M6.59 0c-.14 0-.27.05-.36.14C5.98.4.02 6.41 0 9.94c0 1.4.35 3.03.7 4.61.29 1.32.56 2.57.57 3.47 0 1.37-.11 4.4-.21 6.71-.02.05-.03.11-.03.16v.28c-.05 1-.08 1.69-.08 1.71v.02c0 1.81.5 3.45 1.42 4.62 1.01 1.29 2.48 1.98 4.23 1.98s3.21-.68 4.23-1.98c.91-1.16 1.42-2.8 1.42-4.62v-.08l-.08-1.64v-.29c0-.05 0-.11-.03-.16-.1-2.31-.22-5.34-.21-6.71 0-.85.26-1.93.52-3.08.35-1.52.75-3.24.74-5.01C13.17 6.4 7.21.39 6.96.14A.506.506 0 0 0 6.6 0Zm0 32.49c-3.41 0-4.3-2.89-4.53-4.36 1.04 1.45 2.73 2.34 4.53 2.34s3.49-.88 4.53-2.34c-.23 1.47-1.12 4.36-4.53 4.36Zm4.54-7.32c-.14 2.4-2.14 4.28-4.54 4.28s-4.4-1.88-4.54-4.28c.09-2.02.24-5.63.23-7.16 0-1.01-.29-2.31-.59-3.68-.22-1.03-.46-2.09-.58-3.06l5.48-4.23 5.5 4.25c-.13 1.2-.4 2.38-.64 3.43-.28 1.2-.54 2.34-.55 3.3-.01 1.53.14 5.14.23 7.16ZM6.28 5.99l-5.26 4.06v-.11c.01-2.68 4.47-7.53 5.58-8.7 1.11 1.17 5.56 6.02 5.58 8.7v.11L6.92 5.99c-.09-.07-.2-.11-.31-.11s-.22.04-.31.11Z" style="fill:#665822"/><path d="M7.43 19.58H5.76c-.28 0-.51.23-.51.51v6.14c0 .28.23.51.51.51h1.67c.28 0 .51-.23.51-.51v-6.14c0-.28-.23-.51-.51-.51Zm-.51 1.02v5.12h-.65V20.6h.65ZM28.63 14.55c.35-1.58.7-3.21.7-4.61C29.31 6.41 23.35.4 23.1.15c-.09-.09-.22-.14-.36-.14s-.27.05-.36.14c-.25.25-6.22 6.26-6.23 9.79 0 1.77.39 3.49.74 5.01.27 1.14.52 2.23.52 3.08 0 1.37-.11 4.4-.21 6.71-.02.05-.03.11-.03.16v.28c-.04.96-.08 1.63-.08 1.71v.03c0 1.81.5 3.45 1.42 4.62 1.01 1.29 2.48 1.98 4.23 1.98s3.21-.68 4.23-1.98c.91-1.16 1.42-2.8 1.42-4.62v-.03s-.04-.71-.08-1.7v-.29c0-.05 0-.11-.03-.16-.1-2.31-.22-5.34-.21-6.71 0-.9.28-2.15.57-3.47Zm-5.9 17.94c-3.41 0-4.3-2.89-4.53-4.36 1.04 1.45 2.73 2.34 4.53 2.34s3.49-.88 4.53-2.34c-.23 1.47-1.12 4.36-4.53 4.36Zm4.54-7.32c-.14 2.4-2.14 4.28-4.54 4.28s-4.4-1.88-4.54-4.28c.09-2.02.24-5.63.23-7.16 0-.96-.27-2.1-.55-3.3-.24-1.05-.52-2.24-.65-3.43l5.5-4.25 5.48 4.23c-.12.98-.36 2.04-.58 3.06-.3 1.38-.59 2.68-.59 3.68-.01 1.53.14 5.14.23 7.16ZM22.42 5.99l-5.26 4.06v-.11c.01-2.68 4.46-7.54 5.58-8.7 1.11 1.17 5.56 6.02 5.58 8.7v.11l-5.26-4.06a.51.51 0 0 0-.62 0Z" style="fill:#665822"/><path d="M23.56 19.58h-1.67c-.28 0-.51.23-.51.51v6.14c0 .28.23.51.51.51h1.67c.28 0 .51-.23.51-.51v-6.14c0-.28-.23-.51-.51-.51Zm-.51 1.02v5.12h-.65V20.6h.65Z" style="fill:#665822"/></svg>