<svg xmlns="http://www.w3.org/2000/svg" viewBox="0 0 91.26 29.5"><path d="M89.87 12.85c-.77 0-1.39.62-1.39 1.39s.62 1.39 1.39 1.39 1.39-.62 1.39-1.39-.62-1.39-1.39-1.39Zm0 2.61c-.68 0-1.22-.55-1.22-1.23s.55-1.22 1.22-1.22 1.22.55 1.22 1.22-.55 1.23-1.22 1.23Z" style="fill:#665822;fill-rule:evenodd"/><path d="M90.58 13.87c0-.13-.06-.27-.17-.33a.726.726 0 0 0-.38-.08h-.68v1.55h.19v-.72h.35l.44.72h.23l-.47-.72c.28 0 .49-.12.49-.43Zm-.75.28h-.29v-.55h.44c.19 0 .4.03.4.27 0 .32-.34.28-.56.28ZM81.72 6.36l2.84-3.04c.16-.22.25-.38.25-.51 0-.22-.19-.31-.79-.31h-.72V.58h7.77V2.5h-1.02c-1.18 0-1.4.18-3.04 2.25l-4.5 4.86v2.96c0 .76.38 1.03 1.48 1.03h1.7v1.85H74.81V13.6h1.7c1.1 0 1.48-.27 1.48-1.03V9.61l-5.3-5.86c-.88-1.02-.75-1.25-3.19-1.25V.58h9.84V2.5h-.7c-.71 0-1.01.13-1.01.4 0 .22.22.4.36.58l2.68 2.92c.32.33.71.37 1.07-.04ZM15.71.58h2.37v5.35h-2.19c-.19-1.07-.86-1.49-1.47-2.05-1.1-1.01-3.48-1.85-5.49-1.85-2.59 0-4.77.8-4.77 1.98 0 3.28 14.8.67 14.8 6.86 0 3.23-3.17 5.04-8.86 5.04-1.97 0-4.95-.61-6.71-1.55-.55-.32-.79.3-.89 1.08H.06V9.91h2.2c.49 1.4 1.15 1.69 1.77 2.25 1.07.98 3.61 1.69 5.94 1.67 3.51-.03 4.72-.8 4.72-1.92s-1.19-1.38-5.04-1.98L6.38 9.4C2.69 8.84.01 8.02.01 5.08S3.4.11 8.77.11c2.26 0 4.16.3 5.97 1.33.5.33.98.37.97-.86ZM62.02 9.54l.05-5.94c0-.78-.41-1.05-1.57-1.05h-1.36V.69h8.67v1.85h-1.13c-1.16 0-1.57.27-1.57 1.05v11.97l-3.39-.03-10.99-10.4v7.55c0 .76.41 1.05 1.57 1.05h1.51v1.83h-9v-1.83h1.49c1.16 0 1.57-.29 1.57-1.05V3.59c0-.78-.41-1.05-1.57-1.05h-1.49V.69h7.78l9.43 8.84ZM32.99 0c-6.91 0-11.23 3.05-11.23 7.96s4.26 7.85 11.02 7.85c7.18 0 11.35-2.99 11.35-8.09 0-4.59-4.51-7.71-11.14-7.71Zm-.16 13.86c-3.82 0-6.02-2.21-6.02-6.02s2.29-5.93 6.21-5.93 5.96 2.25 5.96 6.08-2.23 5.86-6.15 5.86Z" style="fill:#665822;fill-rule:evenodd"/><path d="M10.75 21.61c-1.16 0-2.05.55-2.66 1.62-.24-.45-.57-.82-1-1.11-.93-.64-2.07-.68-3.07-.11-.33.19-.59.41-.79.66v-.94h-.65v7.54h.65v-4.8c0-.64.22-1.18.65-1.61.43-.43.97-.65 1.61-.65s1.15.25 1.63.76c.47.51.71 1.1.71 1.74v4.56h.64v-4.6c0-.73.21-1.34.63-1.79.42-.45.97-.68 1.66-.68.73 0 1.28.25 1.7.77.42.52.63 1.22.63 2.1v4.19h.63v-4.24c0-1.05-.26-1.89-.78-2.5-.52-.62-1.26-.93-2.17-.93ZM21.3 23.44c-.74-1.22-1.88-1.83-3.39-1.83-1.03 0-1.95.4-2.71 1.19-.76.79-1.15 1.72-1.15 2.77s.4 2.01 1.2 2.77c.8.76 1.77 1.15 2.89 1.15.72 0 1.41-.22 2.04-.65.46-.32.83-.7 1.11-1.15v1c0 .1 0 .21.02.32v.29h.64v-7.5h-.64v1.65Zm-.95-.24c.64.64.97 1.45.97 2.38s-.33 1.68-.97 2.32c-.65.63-1.44.96-2.34.96s-1.7-.32-2.34-.96c-.64-.64-.97-1.42-.97-2.33s.32-1.7.96-2.35c.64-.65 1.42-.98 2.31-.98s1.73.33 2.38.97ZM28.39 21.77h-.81l-3.75 4.96v-7.77h-.69v10.33h.69v-1.48l1.38-1.84c1.14 1.36 2 2.46 2.56 3.27l.04.05h.87l-3.01-3.86 2.72-3.66ZM36.72 25.57c-.01-1.07-.41-2-1.17-2.78-.76-.78-1.68-1.17-2.72-1.17s-2.01.38-2.81 1.13c-.8.75-1.21 1.65-1.21 2.66 0 1.18.39 2.16 1.15 2.93.76.77 1.74 1.16 2.91 1.16.74 0 1.44-.22 2.07-.66a4.41 4.41 0 0 0 1.47-1.77l.08-.17h-.65l-.04.05c-.48.71-.94 1.2-1.37 1.45-.47.28-1.12.43-1.92.43-.71 0-1.37-.28-1.97-.82-.6-.54-.95-1.19-1.04-1.91-.02-.17-.03-.31-.04-.41h7.26v-.12Zm-3.92-3.32c.82 0 1.55.29 2.16.86.59.54.94 1.2 1.06 1.96h-6.55c.18-.83.57-1.5 1.14-2.01.6-.54 1.34-.81 2.18-.81ZM46.99 21.57c-.74 0-1.44.2-2.07.59-.5.31-.91.7-1.22 1.18l.04-4.42h-.7v10.35h.66v-1.56c.28.44.66.83 1.16 1.14.66.42 1.35.63 2.05.63 1.09 0 2.05-.38 2.84-1.14.8-.76 1.2-1.67 1.2-2.72 0-1.12-.39-2.08-1.15-2.87a3.764 3.764 0 0 0-2.8-1.19Zm3.29 3.98c0 .96-.33 1.75-.99 2.35-.66.61-1.51.91-2.53.91-.81 0-1.53-.33-2.14-.99-.62-.66-.93-1.42-.93-2.26 0-.91.33-1.7.97-2.35.64-.65 1.43-.98 2.33-.98s1.69.33 2.33.98c.64.65.96 1.44.96 2.35ZM59.28 25.57c-.01-1.07-.41-2-1.17-2.78-.76-.78-1.68-1.17-2.72-1.17s-2.01.38-2.81 1.13c-.8.75-1.21 1.65-1.21 2.66 0 1.18.39 2.16 1.15 2.93.76.77 1.74 1.16 2.91 1.16.74 0 1.44-.22 2.07-.66a4.41 4.41 0 0 0 1.47-1.77l.08-.17h-.65l-.04.05c-.48.71-.94 1.2-1.37 1.45-.47.28-1.12.43-1.92.43-.71 0-1.37-.28-1.97-.82-.6-.54-.95-1.19-1.04-1.91-.02-.17-.03-.31-.04-.41h7.26v-.12Zm-3.92-3.32c.82 0 1.54.29 2.16.86.59.54.94 1.2 1.06 1.96h-6.55c.18-.83.57-1.5 1.14-2.01.6-.54 1.34-.81 2.18-.81ZM60.21 29.28h.65V18.97h-.65v10.31zM62 29.28h.66v-7.5H62v7.5zM62 20.41h.66v-1.42H62v1.42zM71.48 25.57c-.01-1.07-.41-2-1.17-2.78-.76-.78-1.68-1.17-2.72-1.17s-2.01.38-2.81 1.13c-.8.75-1.21 1.65-1.21 2.66 0 1.18.39 2.16 1.15 2.93.76.77 1.74 1.16 2.91 1.16.74 0 1.44-.22 2.07-.66a4.41 4.41 0 0 0 1.47-1.77l.08-.17h-.65l-.04.05c-.48.71-.94 1.2-1.37 1.45-.47.28-1.12.43-1.92.43-.71 0-1.37-.28-1.97-.82-.6-.54-.95-1.19-1.04-1.91-.02-.17-.03-.31-.04-.41h7.26v-.12Zm-3.92-3.32c.82 0 1.54.29 2.16.86.59.54.94 1.2 1.06 1.96h-6.55c.18-.83.57-1.5 1.14-2.01.6-.54 1.34-.81 2.18-.81ZM74.57 28.42l-2.67-6.67h-.72l3.05 7.5h.67l3.11-7.45-.65-.06-2.79 6.68zM85.25 26.95c-.48.71-.94 1.2-1.37 1.45-.47.28-1.12.43-1.92.43-.71 0-1.37-.28-1.97-.82-.6-.54-.95-1.19-1.04-1.91-.02-.17-.03-.3-.04-.41h7.26v-.12A3.948 3.948 0 0 0 85 22.79c-.76-.78-1.68-1.17-2.72-1.17s-2.01.38-2.81 1.13c-.8.75-1.21 1.65-1.21 2.66 0 1.18.39 2.16 1.15 2.93.76.77 1.74 1.16 2.91 1.16.74 0 1.44-.22 2.07-.66a4.41 4.41 0 0 0 1.47-1.77l.08-.17h-.65l-.04.05Zm-3-4.71c.82 0 1.55.29 2.16.86.59.54.94 1.2 1.06 1.96h-6.55c.18-.83.57-1.5 1.14-2.01.6-.54 1.34-.81 2.18-.81ZM40.62 28.24c0 .7-.56 1.26-1.26 1.26s-1.26-.56-1.26-1.26.56-1.26 1.26-1.26 1.26.56 1.26 1.26Z" style="fill:#665822"/></svg>