<svg xmlns="http://www.w3.org/2000/svg" viewBox="0 0 32.91 49.64"><path d="M32.44 0H.47A.47.47 0 0 0 0 .47v48.69c0 .26.21.47.47.47h12.98c.26 0 .47-.21.47-.47v-3.92s.02-.08.02-.12l.02-32.5c0-1.37 1.12-2.49 2.49-2.49s2.49 1.12 2.49 2.49l.02 32.5s0 .08.02.12v3.92c0 .26.21.47.47.47h12.98c.26 0 .47-.21.47-.47V.47a.47.47 0 0 0-.47-.47Zm-.47 24.98h-3.62v-1.71h3.62v1.71Zm-3.62.95h3.62v6.63h-3.62v-6.63Zm3.62-18.26c-1.2-.2-2.14-1.15-2.34-2.34h2.34v2.34Zm0-3.29h-3.62V.95h3.62v3.43ZM27.4.95v3.94h-1.16V.95h1.16ZM7.62.95h17.67v3.43H7.62V.95Zm-.95 0v3.94H5.51V.95h1.16Zm-2.1 0v3.43H.95V.95h3.62ZM.95 25.93h3.62v6.63H.95v-6.63Zm3.62-.95H.95v-1.71h3.62v1.71ZM.95 5.32h2.34c-.2 1.2-1.15 2.14-2.34 2.34V5.32Zm12.04 43.37H.95V45.6h12.04v3.09Zm3.47-39.5c-1.89 0-3.43 1.54-3.43 3.43l-.02 32.03H.95V33.5h4.1c.26 0 .47-.21.47-.47V22.8a.47.47 0 0 0-.47-.47H.95V8.63a3.8 3.8 0 0 0 3.3-3.3h.32v.04c0 .26.21.47.47.47h2.1c.26 0 .47-.21.47-.47v-.04h17.67v.04c0 .26.21.47.47.47h2.1c.26 0 .47-.21.47-.47v-.04h.32a3.8 3.8 0 0 0 3.3 3.3v13.7h-4.1a.47.47 0 0 0-.47.47v10.23c0 .26.21.47.47.47h4.1v11.15H19.88l-.02-32.03c0-1.89-1.54-3.43-3.43-3.43Zm15.51 39.5H19.93V45.6h12.04v3.09Z" style="fill:#665822"/><path d="M16.46 1.04c-.88 0-1.6.72-1.6 1.6s.72 1.6 1.6 1.6 1.6-.72 1.6-1.6-.72-1.6-1.6-1.6Zm0 2.26a.66.66 0 1 1 .66-.66c0 .37-.29.66-.66.66Z" style="fill:#665822"/></svg>