<svg xmlns="http://www.w3.org/2000/svg" viewBox="0 0 12.3 64.17"><path d="M10.02 60.3v-3.15c0-.06.05-.11.11-.11h.23a.49.49 0 0 0 0-.98h-.23c-.06 0-.11-.05-.11-.11V36.91s.01-.06.04-.09c1.43-1.18 2.25-2.91 2.25-4.75s-.82-3.57-2.25-4.75c-.03-.02-.04-.05-.04-.09V8.14c0-.06.05-.11.11-.11h1.03a.49.49 0 0 0 0-.98h-1.03c-.06 0-.11-.05-.11-.11V3.86c0-2.13-1.73-3.87-3.87-3.87S2.28 1.72 2.28 3.86v3.08c0 .06-.05.11-.11.11H1.14a.49.49 0 0 0 0 .98h1.03c.06 0 .11.05.11.11V27.25c0 .03-.01.06-.04.08-1.43 1.18-2.25 2.91-2.25 4.75s.82 3.57 2.25 4.75c.03.02.04.05.04.09v19.04c0 .06-.05.11-.11.11h-.23a.49.49 0 0 0 0 .98h.23c.06 0 .11.05.11.11v3.15c0 2.13 1.73 3.87 3.87 3.87s3.87-1.73 3.87-3.87ZM3.37 7.05c-.06 0-.11-.05-.11-.11V3.86c0-1.59 1.3-2.89 2.89-2.89s2.89 1.3 2.89 2.89v3.08c0 .06-.05.11-.11.11H3.37Zm.05 19.52s-.07.01-.1 0a.105.105 0 0 1-.05-.09V8.14c0-.06.05-.11.11-.11h5.56c.06 0 .11.05.11.11v18.34s-.02.07-.05.09a.09.09 0 0 1-.1 0c-.86-.43-1.78-.64-2.73-.64s-1.88.22-2.74.64Zm-2.44 5.5c0-2.85 2.32-5.17 5.17-5.17s5.17 2.32 5.17 5.17S9 37.24 6.15 37.24.98 34.92.98 32.07Zm5.77 23.98c-.06 0-.11-.05-.11-.11v-2.45a.49.49 0 0 0-.98 0v2.45c0 .06-.05.11-.11.11H3.36c-.06 0-.11-.05-.11-.11V37.66s.02-.07.05-.09a.09.09 0 0 1 .1 0c.86.43 1.78.64 2.74.64s1.88-.22 2.73-.64c.03-.02.07-.01.1 0 .03.02.05.05.05.09v18.28c0 .06-.05.11-.11.11H6.72Zm-3.49 4.23v-3.15c0-.06.05-.11.11-.11h5.56c.06 0 .11.05.11.11v3.15c0 1.59-1.3 2.89-2.89 2.89s-2.89-1.3-2.89-2.89Z" style="fill:#665822"/><path d="M6.8 11.12c0-.36-.29-.66-.66-.66s-.65.29-.65.66.29.65.65.65.66-.29.66-.65ZM6.8 14.73c0-.36-.29-.65-.66-.65s-.65.29-.65.65.29.66.65.66.66-.29.66-.66ZM6.78 18.5a.657.657 0 0 0-1.27-.33.657.657 0 0 0 1.27.33ZM6.49 32.93s.04-.05.06-.08v-.02l.02-.03.02-.04v-.07s.02-.01.02-.02v-3.48a.49.49 0 0 0-.98 0v3.13s-.01.06-.03.08l-1.56 1.56c-.09.09-.14.22-.14.35s.05.25.14.35c.09.09.22.14.35.14s.25-.05.35-.14l1.74-1.74Z" style="fill:#665822"/></svg>